<svg xmlns="http://www.w3.org/2000/svg" xmlns:xlink="http://www.w3.org/1999/xlink" width="1920" zoomAndPan="magnify" viewBox="0 0 1440 374.999991" height="500" preserveAspectRatio="xMidYMid meet" version="1.0"><defs><g/><clipPath id="33ff1cd83e"><path d="M 21.210938 99.957031 L 264.925781 99.957031 L 264.925781 313.207031 L 21.210938 313.207031 Z M 21.210938 99.957031 " clip-rule="nonzero"/></clipPath><clipPath id="92a4c081d1"><path d="M 143.070312 99.957031 L 264.925781 313.207031 L 21.210938 313.207031 Z M 143.070312 99.957031 " clip-rule="nonzero"/></clipPath><clipPath id="85395234fe"><path d="M 296.46875 99.957031 L 540.542969 99.957031 L 540.542969 313.207031 L 296.46875 313.207031 Z M 296.46875 99.957031 " clip-rule="nonzero"/></clipPath><clipPath id="df99274adf"><path d="M 418.328125 99.957031 L 540.1875 313.207031 L 296.46875 313.207031 Z M 418.328125 99.957031 " clip-rule="nonzero"/></clipPath><clipPath id="ea5b663d67"><path d="M 158.480469 61.789062 L 402.554688 61.789062 L 402.554688 275.042969 L 158.480469 275.042969 Z M 158.480469 61.789062 " clip-rule="nonzero"/></clipPath><clipPath id="42144d9f4a"><path d="M 280.695312 275.042969 L 158.835938 61.789062 L 402.554688 61.789062 Z M 280.695312 275.042969 " clip-rule="nonzero"/></clipPath><clipPath id="48815db538"><path d="M 158.839844 61.792969 L 402.554688 61.792969 L 402.554688 275.042969 L 158.839844 275.042969 Z M 158.839844 61.792969 " clip-rule="nonzero"/></clipPath><clipPath id="7625e5ce79"><path d="M 280.699219 275.042969 L 158.839844 61.792969 L 402.554688 61.792969 Z M 280.699219 275.042969 " clip-rule="nonzero"/></clipPath></defs><g clip-path="url(#33ff1cd83e)"><g clip-path="url(#92a4c081d1)"><path stroke-linecap="butt" transform="matrix(0.375, 0, 0, 0.375, 21.211755, 99.956653)" fill="none" stroke-linejoin="miter" d="M 324.956174 0.00100964 L 649.904112 568.667714 L -0.00218109 568.667714 Z M 324.956174 0.00100964 " stroke="#ffffff" stroke-width="156" stroke-opacity="1" stroke-miterlimit="4"/></g></g><g clip-path="url(#85395234fe)"><g clip-path="url(#df99274adf)"><path fill="#ffffff" d="M 296.46875 99.957031 L 540.542969 99.957031 L 540.542969 313.207031 L 296.46875 313.207031 Z M 296.46875 99.957031 " fill-opacity="1" fill-rule="nonzero"/></g></g><g clip-path="url(#ea5b663d67)"><g clip-path="url(#42144d9f4a)"><path fill="#ffffff" d="M 402.554688 275.042969 L 158.480469 275.042969 L 158.480469 61.789062 L 402.554688 61.789062 Z M 402.554688 275.042969 " fill-opacity="1" fill-rule="nonzero"/></g></g><g clip-path="url(#48815db538)"><g clip-path="url(#7625e5ce79)"><path stroke-linecap="butt" transform="matrix(-0.375, 0, 0, -0.375, 402.555255, 275.042473)" fill="none" stroke-linejoin="miter" d="M 324.949451 -0.00132163 L 649.907806 568.665382 L 0.00151292 568.665382 Z M 324.949451 -0.00132163 " stroke="#ffffff" stroke-width="64" stroke-opacity="1" stroke-miterlimit="4"/></g></g><g fill="#ffffff" fill-opacity="1"><g transform="translate(554.716037, 160.898814)"><g><path d="M 43.1875 -53.46875 L 43.1875 -43.03125 L 29.015625 -43.03125 L 29.015625 0 L 16 0 L 16 -43.03125 L 1.828125 -43.03125 L 1.828125 -53.46875 Z M 43.1875 -53.46875 "/></g></g></g><g fill="#ffffff" fill-opacity="1"><g transform="translate(605.439167, 160.898814)"><g><path d="M 31.984375 0 L 20.859375 -20.1875 L 17.75 -20.1875 L 17.75 0 L 4.71875 0 L 4.71875 -53.46875 L 26.578125 -53.46875 C 30.796875 -53.46875 34.390625 -52.726562 37.359375 -51.25 C 40.328125 -49.78125 42.546875 -47.765625 44.015625 -45.203125 C 45.492188 -42.640625 46.234375 -39.78125 46.234375 -36.625 C 46.234375 -33.070312 45.226562 -29.898438 43.21875 -27.109375 C 41.207031 -24.316406 38.25 -22.335938 34.34375 -21.171875 L 46.6875 0 Z M 17.75 -29.390625 L 25.8125 -29.390625 C 28.195312 -29.390625 29.984375 -29.972656 31.171875 -31.140625 C 32.367188 -32.316406 32.96875 -33.96875 32.96875 -36.09375 C 32.96875 -38.125 32.367188 -39.722656 31.171875 -40.890625 C 29.984375 -42.054688 28.195312 -42.640625 25.8125 -42.640625 L 17.75 -42.640625 Z M 17.75 -29.390625 "/></g></g></g><g fill="#ffffff" fill-opacity="1"><g transform="translate(660.808059, 160.898814)"><g><path d="M 17.75 -53.46875 L 17.75 0 L 4.71875 0 L 4.71875 -53.46875 Z M 17.75 -53.46875 "/></g></g></g><g fill="#ffffff" fill-opacity="1"><g transform="translate(688.987806, 160.898814)"><g><path d="M 31.984375 0 L 20.859375 -20.1875 L 17.75 -20.1875 L 17.75 0 L 4.71875 0 L 4.71875 -53.46875 L 26.578125 -53.46875 C 30.796875 -53.46875 34.390625 -52.726562 37.359375 -51.25 C 40.328125 -49.78125 42.546875 -47.765625 44.015625 -45.203125 C 45.492188 -42.640625 46.234375 -39.78125 46.234375 -36.625 C 46.234375 -33.070312 45.226562 -29.898438 43.21875 -27.109375 C 41.207031 -24.316406 38.25 -22.335938 34.34375 -21.171875 L 46.6875 0 Z M 17.75 -29.390625 L 25.8125 -29.390625 C 28.195312 -29.390625 29.984375 -29.972656 31.171875 -31.140625 C 32.367188 -32.316406 32.96875 -33.96875 32.96875 -36.09375 C 32.96875 -38.125 32.367188 -39.722656 31.171875 -40.890625 C 29.984375 -42.054688 28.195312 -42.640625 25.8125 -42.640625 L 17.75 -42.640625 Z M 17.75 -29.390625 "/></g></g></g><g fill="#ffffff" fill-opacity="1"><g transform="translate(744.356698, 160.898814)"><g><path d="M 17.515625 -53.46875 L 17.515625 -21.46875 C 17.515625 -18.269531 18.300781 -15.804688 19.875 -14.078125 C 21.445312 -12.359375 23.757812 -11.5 26.8125 -11.5 C 29.851562 -11.5 32.1875 -12.359375 33.8125 -14.078125 C 35.4375 -15.804688 36.25 -18.269531 36.25 -21.46875 L 36.25 -53.46875 L 49.265625 -53.46875 L 49.265625 -21.546875 C 49.265625 -16.773438 48.25 -12.738281 46.21875 -9.4375 C 44.195312 -6.144531 41.472656 -3.660156 38.046875 -1.984375 C 34.617188 -0.304688 30.796875 0.53125 26.578125 0.53125 C 22.359375 0.53125 18.585938 -0.289062 15.265625 -1.9375 C 11.941406 -3.59375 9.316406 -6.082031 7.390625 -9.40625 C 5.460938 -12.726562 4.5 -16.773438 4.5 -21.546875 L 4.5 -53.46875 Z M 17.515625 -53.46875 "/></g></g></g><g fill="#ffffff" fill-opacity="1"><g transform="translate(803.762071, 160.898814)"><g><path d="M 38 -9.4375 L 18.046875 -9.4375 L 14.84375 0 L 1.21875 0 L 20.5625 -53.46875 L 35.640625 -53.46875 L 54.984375 0 L 41.203125 0 Z M 34.65625 -19.5 L 28.03125 -39.0625 L 21.46875 -19.5 Z M 34.65625 -19.5 "/></g></g></g><g fill="#ffffff" fill-opacity="1"><g transform="translate(865.604566, 160.898814)"><g><path d="M 52.546875 0 L 39.53125 0 L 17.75 -32.96875 L 17.75 0 L 4.71875 0 L 4.71875 -53.46875 L 17.75 -53.46875 L 39.53125 -20.328125 L 39.53125 -53.46875 L 52.546875 -53.46875 Z M 52.546875 0 "/></g></g></g><g fill="#ffffff" fill-opacity="1"><g transform="translate(928.589455, 160.898814)"><g><path d="M 40.203125 -36.5625 C 39.242188 -38.332031 37.863281 -39.6875 36.0625 -40.625 C 34.257812 -41.5625 32.140625 -42.03125 29.703125 -42.03125 C 25.484375 -42.03125 22.101562 -40.644531 19.5625 -37.875 C 17.03125 -35.113281 15.765625 -31.425781 15.765625 -26.8125 C 15.765625 -21.882812 17.097656 -18.035156 19.765625 -15.265625 C 22.429688 -12.503906 26.097656 -11.125 30.765625 -11.125 C 33.960938 -11.125 36.664062 -11.9375 38.875 -13.5625 C 41.082031 -15.1875 42.695312 -17.519531 43.71875 -20.5625 L 27.1875 -20.5625 L 27.1875 -30.15625 L 55.515625 -30.15625 L 55.515625 -18.046875 C 54.554688 -14.796875 52.921875 -11.773438 50.609375 -8.984375 C 48.296875 -6.191406 45.363281 -3.929688 41.8125 -2.203125 C 38.257812 -0.484375 34.25 0.375 29.78125 0.375 C 24.5 0.375 19.785156 -0.773438 15.640625 -3.078125 C 11.503906 -5.390625 8.28125 -8.601562 5.96875 -12.71875 C 3.664062 -16.832031 2.515625 -21.53125 2.515625 -26.8125 C 2.515625 -32.09375 3.664062 -36.800781 5.96875 -40.9375 C 8.28125 -45.070312 11.492188 -48.296875 15.609375 -50.609375 C 19.722656 -52.921875 24.421875 -54.078125 29.703125 -54.078125 C 36.097656 -54.078125 41.488281 -52.523438 45.875 -49.421875 C 50.269531 -46.328125 53.179688 -42.039062 54.609375 -36.5625 Z M 40.203125 -36.5625 "/></g></g></g><g fill="#ffffff" fill-opacity="1"><g transform="translate(992.341008, 160.898814)"><g/></g></g><g fill="#ffffff" fill-opacity="1"><g transform="translate(554.716037, 267.398807)"><g><path d="M 65.265625 -53.46875 L 65.265625 0 L 52.25 0 L 52.25 -32.0625 L 40.28125 0 L 29.78125 0 L 17.75 -32.140625 L 17.75 0 L 4.71875 0 L 4.71875 -53.46875 L 20.109375 -53.46875 L 35.109375 -16.453125 L 49.953125 -53.46875 Z M 65.265625 -53.46875 "/></g></g></g><g fill="#ffffff" fill-opacity="1"><g transform="translate(630.3435, 267.398807)"><g><path d="M 38 -9.4375 L 18.046875 -9.4375 L 14.84375 0 L 1.21875 0 L 20.5625 -53.46875 L 35.640625 -53.46875 L 54.984375 0 L 41.203125 0 Z M 34.65625 -19.5 L 28.03125 -39.0625 L 21.46875 -19.5 Z M 34.65625 -19.5 "/></g></g></g><g fill="#ffffff" fill-opacity="1"><g transform="translate(692.185995, 267.398807)"><g><path d="M 35.71875 0 L 17.75 -23.609375 L 17.75 0 L 4.71875 0 L 4.71875 -53.46875 L 17.75 -53.46875 L 17.75 -30 L 35.5625 -53.46875 L 50.875 -53.46875 L 30.15625 -27.265625 L 51.640625 0 Z M 35.71875 0 "/></g></g></g><g fill="#ffffff" fill-opacity="1"><g transform="translate(750.982084, 267.398807)"><g><path d="M 52.546875 0 L 39.53125 0 L 17.75 -32.96875 L 17.75 0 L 4.71875 0 L 4.71875 -53.46875 L 17.75 -53.46875 L 39.53125 -20.328125 L 39.53125 -53.46875 L 52.546875 -53.46875 Z M 52.546875 0 "/></g></g></g><g fill="#ffffff" fill-opacity="1"><g transform="translate(813.966997, 267.398807)"><g><path d="M 38 -9.4375 L 18.046875 -9.4375 L 14.84375 0 L 1.21875 0 L 20.5625 -53.46875 L 35.640625 -53.46875 L 54.984375 0 L 41.203125 0 Z M 34.65625 -19.5 L 28.03125 -39.0625 L 21.46875 -19.5 Z M 34.65625 -19.5 "/></g></g></g><g fill="#ffffff" fill-opacity="1"><g transform="translate(875.809491, 267.398807)"><g/></g></g><g fill="#ffffff" fill-opacity="1"><g transform="translate(897.667934, 267.398807)"><g><path d="M 65.265625 -53.46875 L 65.265625 0 L 52.25 0 L 52.25 -32.0625 L 40.28125 0 L 29.78125 0 L 17.75 -32.140625 L 17.75 0 L 4.71875 0 L 4.71875 -53.46875 L 20.109375 -53.46875 L 35.109375 -16.453125 L 49.953125 -53.46875 Z M 65.265625 -53.46875 "/></g></g></g><g fill="#ffffff" fill-opacity="1"><g transform="translate(973.295386, 267.398807)"><g><path d="M 38 -9.4375 L 18.046875 -9.4375 L 14.84375 0 L 1.21875 0 L 20.5625 -53.46875 L 35.640625 -53.46875 L 54.984375 0 L 41.203125 0 Z M 34.65625 -19.5 L 28.03125 -39.0625 L 21.46875 -19.5 Z M 34.65625 -19.5 "/></g></g></g><g fill="#ffffff" fill-opacity="1"><g transform="translate(1035.13788, 267.398807)"><g><path d="M 52.546875 0 L 39.53125 0 L 17.75 -32.96875 L 17.75 0 L 4.71875 0 L 4.71875 -53.46875 L 17.75 -53.46875 L 39.53125 -20.328125 L 39.53125 -53.46875 L 52.546875 -53.46875 Z M 52.546875 0 "/></g></g></g><g fill="#ffffff" fill-opacity="1"><g transform="translate(1098.12277, 267.398807)"><g><path d="M 40.203125 -36.5625 C 39.242188 -38.332031 37.863281 -39.6875 36.0625 -40.625 C 34.257812 -41.5625 32.140625 -42.03125 29.703125 -42.03125 C 25.484375 -42.03125 22.101562 -40.644531 19.5625 -37.875 C 17.03125 -35.113281 15.765625 -31.425781 15.765625 -26.8125 C 15.765625 -21.882812 17.097656 -18.035156 19.765625 -15.265625 C 22.429688 -12.503906 26.097656 -11.125 30.765625 -11.125 C 33.960938 -11.125 36.664062 -11.9375 38.875 -13.5625 C 41.082031 -15.1875 42.695312 -17.519531 43.71875 -20.5625 L 27.1875 -20.5625 L 27.1875 -30.15625 L 55.515625 -30.15625 L 55.515625 -18.046875 C 54.554688 -14.796875 52.921875 -11.773438 50.609375 -8.984375 C 48.296875 -6.191406 45.363281 -3.929688 41.8125 -2.203125 C 38.257812 -0.484375 34.25 0.375 29.78125 0.375 C 24.5 0.375 19.785156 -0.773438 15.640625 -3.078125 C 11.503906 -5.390625 8.28125 -8.601562 5.96875 -12.71875 C 3.664062 -16.832031 2.515625 -21.53125 2.515625 -26.8125 C 2.515625 -32.09375 3.664062 -36.800781 5.96875 -40.9375 C 8.28125 -45.070312 11.492188 -48.296875 15.609375 -50.609375 C 19.722656 -52.921875 24.421875 -54.078125 29.703125 -54.078125 C 36.097656 -54.078125 41.488281 -52.523438 45.875 -49.421875 C 50.269531 -46.328125 53.179688 -42.039062 54.609375 -36.5625 Z M 40.203125 -36.5625 "/></g></g></g><g fill="#ffffff" fill-opacity="1"><g transform="translate(1161.869286, 267.398807)"><g><path d="M 40.203125 -36.5625 C 39.242188 -38.332031 37.863281 -39.6875 36.0625 -40.625 C 34.257812 -41.5625 32.140625 -42.03125 29.703125 -42.03125 C 25.484375 -42.03125 22.101562 -40.644531 19.5625 -37.875 C 17.03125 -35.113281 15.765625 -31.425781 15.765625 -26.8125 C 15.765625 -21.882812 17.097656 -18.035156 19.765625 -15.265625 C 22.429688 -12.503906 26.097656 -11.125 30.765625 -11.125 C 33.960938 -11.125 36.664062 -11.9375 38.875 -13.5625 C 41.082031 -15.1875 42.695312 -17.519531 43.71875 -20.5625 L 27.1875 -20.5625 L 27.1875 -30.15625 L 55.515625 -30.15625 L 55.515625 -18.046875 C 54.554688 -14.796875 52.921875 -11.773438 50.609375 -8.984375 C 48.296875 -6.191406 45.363281 -3.929688 41.8125 -2.203125 C 38.257812 -0.484375 34.25 0.375 29.78125 0.375 C 24.5 0.375 19.785156 -0.773438 15.640625 -3.078125 C 11.503906 -5.390625 8.28125 -8.601562 5.96875 -12.71875 C 3.664062 -16.832031 2.515625 -21.53125 2.515625 -26.8125 C 2.515625 -32.09375 3.664062 -36.800781 5.96875 -40.9375 C 8.28125 -45.070312 11.492188 -48.296875 15.609375 -50.609375 C 19.722656 -52.921875 24.421875 -54.078125 29.703125 -54.078125 C 36.097656 -54.078125 41.488281 -52.523438 45.875 -49.421875 C 50.269531 -46.328125 53.179688 -42.039062 54.609375 -36.5625 Z M 40.203125 -36.5625 "/></g></g></g><g fill="#ffffff" fill-opacity="1"><g transform="translate(1225.615803, 267.398807)"><g><path d="M 38 -9.4375 L 18.046875 -9.4375 L 14.84375 0 L 1.21875 0 L 20.5625 -53.46875 L 35.640625 -53.46875 L 54.984375 0 L 41.203125 0 Z M 34.65625 -19.5 L 28.03125 -39.0625 L 21.46875 -19.5 Z M 34.65625 -19.5 "/></g></g></g><g fill="#ffffff" fill-opacity="1"><g transform="translate(1287.458297, 267.398807)"><g><path d="M 17.75 -10.046875 L 34.796875 -10.046875 L 34.796875 0 L 4.71875 0 L 4.71875 -53.46875 L 17.75 -53.46875 Z M 17.75 -10.046875 "/></g></g></g><g fill="#ffffff" fill-opacity="1"><g transform="translate(1329.499127, 267.398807)"><g><path d="M 38 -9.4375 L 18.046875 -9.4375 L 14.84375 0 L 1.21875 0 L 20.5625 -53.46875 L 35.640625 -53.46875 L 54.984375 0 L 41.203125 0 Z M 34.65625 -19.5 L 28.03125 -39.0625 L 21.46875 -19.5 Z M 34.65625 -19.5 "/></g></g></g></svg>